<svg id="LINE" xmlns="http://www.w3.org/2000/svg" viewBox="0 0 64 64"><defs><style>.cls-1{fill:#231f20;}</style></defs><path class="cls-1" d="M32,3.92355A28.10418,28.10418,0,0,0,3.92747,31.99608c1.54185,37.24208,54.60889,37.23124,56.14512-.00021A28.10421,28.10421,0,0,0,32,3.92355Zm0,54.2475a26.20473,26.20473,0,0,1-26.175-26.175c1.43793-34.72463,50.91729-34.71452,52.35.0002A26.20477,26.20477,0,0,1,32,58.17105Z"/><path class="cls-1" d="M44.42083,18.45187a7.892,7.892,0,0,0-7.73389-6.38026.94883.94883,0,0,0-.94878.94878v.97108a18.48,18.48,0,0,0-3.84425-.37762v-.59346a.94879.94879,0,0,0-1.89757,0V24.06947c.10359,1.01976-1.41453,1.991-2.00644,2.63373a3.628,3.628,0,0,0-1.13965,2.72264L27.28619,48.37a1.61891,1.61891,0,0,1-3.23782.00132l.42668-18.687a3.62668,3.62668,0,0,0-1.13873-2.7222c-.57891-.63119-2.11587-1.6183-2.00687-2.63415l0-11.0491a.9489.9489,0,0,0-1.89756,0l0,5.31248a18.35795,18.35795,0,0,0,2.73743,28.94645,3.99033,3.99033,0,0,0,.97717,3.32639,3.50914,3.50914,0,0,0,5.58613-.76508,18.275,18.275,0,0,0,7.16019-.12606,2.82075,2.82075,0,0,0,5.50289-.88132v-1.285C51.899,41.73826,53.49137,26.53629,44.42083,18.45187ZM15.50051,31.99608A16.48242,16.48242,0,0,1,19.43185,21.34V24.328c-.10971,1.72349,1.46743,2.97165,2.60369,4.01561a1.7301,1.7301,0,0,1,.54286,1.29721l-.35735,15.63445A16.58481,16.58481,0,0,1,15.50051,31.99608ZM37.63573,14.04423a5.99338,5.99338,0,0,1,5.03486,5.90859V36.0451a1.89,1.89,0,0,1-1.88785,1.88784c-.11891.01244-2.94928-.009-3.147,0ZM29.182,48.25172l-.43508-18.869a1.73215,1.73215,0,0,1,.54342-1.29763c1.13706-1.04353,2.71263-2.29317,2.6035-4.01571l.0001-8.55864a16.48748,16.48748,0,0,1,3.84425.43055V48.05888A16.67172,16.67172,0,0,1,29.182,48.25172Zm10.31612.84009a.93136.93136,0,0,1-1.86236-.00006V39.83051h1.86236Zm1.89757-3.54V39.76854a3.782,3.782,0,0,0,3.17249-3.72344v-14.699C50.8778,28.45813,49.29165,40.30721,41.39566,45.55182Z"/><path class="cls-1" d="M23.96359,22.70976a.94884.94884,0,0,0,.94879-.94878V13.27844a.94879.94879,0,1,0-1.89757,0V21.761A.94883.94883,0,0,0,23.96359,22.70976Z"/><path class="cls-1" d="M27.0388,22.97012a.94883.94883,0,0,0,.94879-.94878v-8.7429a.94879.94879,0,1,0-1.89757,0v8.7429A.94883.94883,0,0,0,27.0388,22.97012Z"/></svg>